<?xml version="1.0" encoding="UTF-8" standalone="no"?>
<!-- Created with Inkscape (http://www.inkscape.org/) -->

<svg
   xmlns:dc="http://purl.org/dc/elements/1.1/"
   xmlns:cc="http://creativecommons.org/ns#"
   xmlns:rdf="http://www.w3.org/1999/02/22-rdf-syntax-ns#"
   xmlns:svg="http://www.w3.org/2000/svg"
   xmlns="http://www.w3.org/2000/svg"
   xmlns:sodipodi="http://sodipodi.sourceforge.net/DTD/sodipodi-0.dtd"
   xmlns:inkscape="http://www.inkscape.org/namespaces/inkscape"
   width="744.09448819"
   height="1052.3622047"
   id="svg2"
   version="1.1"
   inkscape:version="0.48.1 r9760"
   sodipodi:docname="New document 1">
  <defs
     id="defs4" />
  <sodipodi:namedview
     id="base"
     pagecolor="#ffffff"
     bordercolor="#666666"
     borderopacity="1.0"
     inkscape:pageopacity="0.0"
     inkscape:pageshadow="2"
     inkscape:zoom="0.35"
     inkscape:cx="380.71429"
     inkscape:cy="514.28571"
     inkscape:document-units="px"
     inkscape:current-layer="layer1"
     showgrid="false"
     inkscape:window-width="1181"
     inkscape:window-height="830"
     inkscape:window-x="28"
     inkscape:window-y="169"
     inkscape:window-maximized="0" />
  <metadata
     id="metadata7">
    <rdf:RDF>
      <cc:Work
         rdf:about="">
        <dc:format>image/svg+xml</dc:format>
        <dc:type
           rdf:resource="http://purl.org/dc/dcmitype/StillImage" />
        <dc:title></dc:title>
      </cc:Work>
    </rdf:RDF>
  </metadata>
  <g
     inkscape:label="Layer 1"
     inkscape:groupmode="layer"
     id="layer1">
    <path
       style="fill:none;stroke:#000000;stroke-width:1px;stroke-linecap:butt;stroke-linejoin:miter;stroke-opacity:1"
       d="m 117.14286,415.21933 c 3.80952,-2.85715 8.06139,-5.20426 11.42857,-8.57143 0.67343,-0.67344 -0.42592,-2.00531 0,-2.85715 0.60234,-1.20467 1.90476,-1.90476 2.85714,-2.85714 0,-1.90476 -0.60234,-3.90727 0,-5.71428 0.51547,-1.5464 7.32005,-6.69436 8.57143,-8.57143 4.37962,-6.56944 1.33466,-7.71628 5.71429,-14.28572 1.49421,-2.24132 4.5096,-3.30493 5.71428,-5.71428 0.42592,-0.85184 -0.42592,-2.00531 0,-2.85715 1.20468,-2.40935 4.50961,-3.30493 5.71429,-5.71428 0.42591,-0.85184 -0.42592,-2.00531 0,-2.85714 0.60234,-1.20468 2.2548,-1.65247 2.85714,-2.85715 0.85184,-1.70367 -1.34687,-4.36741 0,-5.71428 0.67344,-0.67344 2.18371,0.67343 2.85714,0 1.34687,-1.34687 -1.34687,-4.36742 0,-5.71429 0.67344,-0.67343 2.18371,0.67344 2.85715,0 1.34687,-1.34687 -1.34687,-4.36741 0,-5.71428 0.67343,-0.67344 2.1837,0.67343 2.85714,0 0.67343,-0.67344 -0.42592,-2.00531 0,-2.85715 0.60234,-1.20467 2.2548,-1.65246 2.85714,-2.85714 0.42592,-0.85184 -0.67343,-2.18371 0,-2.85714 0.67344,-0.67344 2.18371,0.67343 2.85714,0 0.67344,-0.67344 -0.42591,-2.00531 0,-2.85715 0.60234,-1.20467 2.25481,-1.65246 2.85715,-2.85714 0.42591,-0.85183 -0.67344,-2.18371 0,-2.85714 7.61904,0 -0.95238,0.95238 2.85714,-2.85714 0.67344,-0.67344 2.18371,0.67343 2.85714,0 1.34687,-1.34687 -1.34687,-4.36742 0,-5.71429 0.67344,-0.67344 2.00531,0.42592 2.85715,0 2.40935,-1.20468 3.15878,-4.86245 5.71428,-5.71429 1.80702,-0.60233 3.90727,0.60234 5.71429,0 2.5555,-0.85183 3.15878,-4.86245 5.71428,-5.71428 1.80702,-0.60234 4.01062,0.85183 5.71429,0 0.85183,-0.42592 -0.67344,-2.18371 0,-2.85714 1.42857,-1.42858 7.14286,1.42857 8.57143,0 0.67343,-0.67344 -0.67344,-2.18371 0,-2.85715 0.67343,-0.67343 1.90476,0 2.85714,0 7.61905,0 15.2381,0 22.85714,0 0.95238,0 1.90476,0 2.85715,0 0.95238,0 2.1837,-0.67343 2.85714,0 0.67343,0.67344 -0.67344,2.18371 0,2.85715 0.67343,0.67343 1.90476,0 2.85714,0 1.34714,0 14.15622,-0.1295 14.28572,0 0.67343,0.67343 -0.67344,2.1837 0,2.85714 0.67343,0.67343 1.90476,0 2.85714,0 0.95238,0 1.90476,0 2.85714,0 0.69293,0 8.47954,-0.0919 8.57143,0 0.67344,0.67343 -0.67344,2.18371 0,2.85714 1.34687,1.34687 4.36742,-1.34687 5.71429,0 0.67343,0.67344 -0.67344,2.18371 0,2.85714 0.67343,0.67344 2.1837,-0.67343 2.85714,0 0.67343,0.67344 -0.67344,2.18371 0,2.85715 1.34687,1.34687 4.36741,-1.34687 5.71428,0 0.67344,0.67343 -0.67343,2.1837 0,2.85714 0.67344,0.67343 2.18371,-0.67344 2.85715,0 0.67343,0.67343 -0.67344,2.18371 0,2.85714 0.67343,0.67344 2.0053,-0.42592 2.85714,0 2.40935,1.20468 3.15878,4.86245 5.71429,5.71429 1.80701,0.60234 3.90727,-0.60234 5.71428,0 1.27775,0.42592 1.73648,2.11003 2.85714,2.85714 1.90477,0.95238 3.80953,1.90476 5.71429,2.85714 0.95238,0 2.00531,-0.42591 2.85714,0 3.42857,1.71429 5.14286,6.85715 8.57143,8.57143 0.85184,0.42592 2.18371,-0.67343 2.85714,0 0.67344,0.67344 -0.67343,2.18371 0,2.85715 0.67344,0.67343 2.18371,-0.67344 2.85715,0 0.67343,0.67343 0.95238,2.85714 0,2.85714 -0.95238,0 -0.67344,-3.53058 0,-2.85714 1.50584,1.50584 2.1837,3.69398 2.85714,5.71428 0.30117,0.90351 -0.67344,2.18371 0,2.85714 0.67344,0.67344 2.18371,-0.67343 2.85714,0 0.67344,0.67344 -0.67343,2.18371 0,2.85715 0.67344,0.67343 2.18371,-0.67344 2.85715,0 0.67343,0.67343 -0.42592,2.0053 0,2.85714 0.60233,1.20468 2.2548,1.65247 2.85714,2.85714 0.42592,0.85184 -0.67344,2.18371 0,2.85715 0.67343,0.67343 2.18371,-0.67344 2.85714,0 1.34687,1.34687 -1.34687,4.36741 0,5.71428 0.67344,0.67344 2.18371,-0.67343 2.85714,0 0,7.61905 -0.95238,-0.95238 2.85715,2.85714 1.90099,1.90099 -1.90099,3.8133 0,5.71429 0.67343,0.67343 2.1837,-0.67344 2.85714,0 1.34687,1.34687 -1.34687,4.36742 0,5.71429 0.67344,0.67343 2.18371,-0.67344 2.85714,0 0.67344,0.67343 -0.42591,2.0053 0,2.85714 0.60234,1.20468 2.25481,1.65246 2.85715,2.85714 0.85183,1.70367 -1.34687,4.36742 0,5.71429 0.67343,0.67343 2.1837,-0.67344 2.85714,0 0.67343,0.67343 -0.67344,2.1837 0,2.85714 0.67343,0.67343 2.18371,-0.67344 2.85714,0 0.67344,0.67343 -0.42592,2.00531 0,2.85714 0.60234,1.20468 2.25481,1.65247 2.85714,2.85715 0.85184,1.70367 -1.34687,4.36741 0,5.71428 0.67344,0.67344 2.18371,-0.67343 2.85715,0 0.67343,0.67344 -0.67344,2.18371 0,2.85714 0.67343,0.67344 2.1837,-0.67343 2.85714,0 1.34687,1.34687 -1.34687,4.36742 0,5.71429 0.67344,0.67343 2.18371,-0.67344 2.85714,0 1.34687,1.34687 -1.34687,4.36742 0,5.71429 0.67344,0.67343 2.18371,-0.67344 2.85715,0 0.67343,0.67343 0,1.90476 0,2.85714 0.95238,0 2.1837,-0.67344 2.85714,0 1.34687,1.34687 -1.34687,4.36741 0,5.71428 0.67343,0.67344 2.18371,-0.67343 2.85714,0 0.67344,0.67344 -0.42592,2.00531 0,2.85715 0.60234,1.20467 2.25481,1.65246 2.85714,2.85714 0.42592,0.85184 -0.42591,2.00531 0,2.85714 1.20468,2.40936 4.50961,3.30493 5.71429,5.71429 0.42592,0.85183 -0.42592,2.00531 0,2.85714 0.60234,1.20468 2.2548,1.65247 2.85714,2.85714 0.42592,0.85184 -0.42591,2.00531 0,2.85715 0.60234,1.20467 2.25481,1.65246 2.85715,2.85714 0.85183,1.70367 -1.34687,4.36742 0,5.71429 0.67343,0.67343 2.1837,-0.67344 2.85714,0 0.67343,0.67343 0,1.90476 0,2.85714 0.95238,0 2.18371,-0.67344 2.85714,0 1.34687,1.34687 -1.34687,4.36741 0,5.71428 0.67344,0.67344 2.18371,-0.67343 2.85714,0 0.67344,0.67344 -0.67343,2.18371 0,2.85715 0.67344,0.67343 2.18371,-0.67344 2.85715,0 1.34687,1.34687 -1.34687,4.36741 0,5.71428 0.67343,0.67344 2.1837,-0.67343 2.85714,0 1.34687,1.34687 -1.34687,4.36742 0,5.71429 0.67344,0.67343 2.18371,-0.67344 2.85714,0 0.67344,0.67343 -0.67343,2.18371 0,2.85714 0.67344,0.67344 1.90476,0 2.85715,0 0,0.95238 -0.67344,2.18371 0,2.85714 0.67343,0.67344 2.1837,-0.67343 2.85714,0 0.67343,0.67344 -0.67344,2.18371 0,2.85715 7.61905,0 -0.95238,-0.95238 2.85714,2.85714 0.67344,0.67343 2.18371,-0.67344 2.85714,0 1.34687,1.34687 -1.34687,4.36742 0,5.71429 1.34687,1.34687 4.36742,-1.34687 5.71429,0 0.67344,0.67343 -0.67344,2.1837 0,2.85714 0.67344,0.67343 2.00531,-0.42592 2.85714,0 9.47595,9.47595 -2.69374,-1.34687 5.71429,2.85714 11.89074,5.94537 -3.05439,-0.19724 2.85714,5.71429 1.34687,1.34687 4.36742,-1.34687 5.71429,0 0.67343,0.67343 -0.67344,2.1837 0,2.85714 1.34687,1.34687 4.36741,-1.34687 5.71428,0 0.67344,0.67343 -0.67343,2.18371 0,2.85714 1.42857,1.42857 7.14286,-1.42857 8.57143,0 0.67344,0.67344 -0.67343,2.18371 0,2.85715 1.34687,1.34687 4.01062,-0.85184 5.71429,0 1.20467,0.60233 1.57939,2.43122 2.85714,2.85714 2.57143,0.85714 6,-0.85714 8.57143,0 2.0203,0.67343 3.69398,2.18371 5.71428,2.85714 0.90351,0.30117 1.90477,0 2.85715,0 1.90476,0 3.80952,0 5.71428,0 4.76191,0 9.52381,0 14.28572,0 0.95238,0 1.90476,0 2.85714,0 0.95238,0 2.18371,-0.67343 2.85714,0 3.80953,3.80952 -4.7619,2.85714 2.85715,2.85714 0.69293,0 8.47954,0.0919 8.57142,0 0.67344,-0.67343 -0.67343,-2.1837 0,-2.85714 1.34687,-1.34687 4.36742,1.34687 5.71429,0 0.67344,-0.67343 -0.67344,-2.18371 0,-2.85714 1.90099,-1.90099 3.8133,1.90099 5.71429,0 0.67343,-0.67344 -0.67344,-2.18371 0,-2.85714 1.42857,-1.42858 7.14285,1.42857 8.57142,0 0.67344,-0.67344 -0.67343,-2.18371 0,-2.85715 0.67344,-0.67343 2.18371,0.67344 2.85715,0 0.67343,-0.67343 -0.67344,-2.18371 0,-2.85714 1.34687,-1.34687 4.36741,1.34687 5.71428,0 0.67344,-0.67344 -0.67343,-2.18371 0,-2.85714 0.67344,-0.67344 2.18371,0.67343 2.85715,0 0.67343,-0.67344 -0.67344,-2.18371 0,-2.85715 0.67343,-0.67343 2.1837,0.67344 2.85714,0 0.67343,-0.67343 -0.67344,-2.1837 0,-2.85714 0.67343,-0.67343 2.18371,0.67344 2.85714,0 0.67344,-0.67343 -0.67343,-2.18371 0,-2.85714 0.67344,-0.67344 2.00531,0.42592 2.85714,0 11.89075,-5.94537 -3.05438,0.19724 2.85715,-5.71429 0.67343,-0.67343 2.1837,0.67344 2.85714,0 0.67344,-0.67343 -0.67344,-2.18371 0,-2.85714 0.67344,-0.67344 2.18371,0.67343 2.85714,0 0.67344,-0.67344 -0.67343,-2.18371 0,-2.85714 0.67344,-0.67344 2.18371,0.67343 2.85715,0 1.34687,-1.34687 -1.34687,-4.36742 0,-5.71429 0.67343,-0.67343 2.1837,0.67344 2.85714,0 0.67343,-0.67343 -0.67344,-2.18371 0,-2.85714 0.67343,-0.67344 2.18371,0.67343 2.85714,0 0.67344,-0.67344 -0.67343,-2.18371 0,-2.85714 7.61905,0 -0.95238,0.95238 2.85714,-2.85715 0.67344,-0.67343 2.18371,0.67344 2.85715,0 0.67343,-0.67343 -0.67344,-2.18371 0,-2.85714 0.67343,-0.67344 2.1837,0.67343 2.85714,0 0.67344,-0.67344 -0.42592,-2.00531 0,-2.85714 0.60234,-1.20468 2.2548,-1.65247 2.85714,-2.85715 0.42592,-0.85183 -0.67343,-2.1837 0,-2.85714 0.67344,-0.67343 2.18371,0.67344 2.85715,0 1.34687,-1.34687 -1.34687,-4.36741 0,-5.71428 0.67343,-0.67344 2.1837,0.67343 2.85714,0 1.34687,-1.34687 -1.34687,-4.36742 0,-5.71429 0.67343,-0.67344 2.18371,0.67343 2.85714,0 1.34687,-1.34687 -1.34687,-4.36742 0,-5.71429 7.61905,0 -0.95238,0.95238 2.85714,-2.85714 0.67344,-0.67343 2.18371,0.67344 2.85715,0 1.90099,-1.90099 -1.90099,-3.81329 0,-5.71428 0.67343,-0.67344 2.1837,0.67343 2.85714,0 0.67344,-0.67344 -0.67344,-2.18371 0,-2.85715 0.67344,-0.67343 2.18371,0.67344 2.85714,0 1.34687,-1.34687 -1.34687,-4.36741 0,-5.71428 0.67344,-0.67344 2.18371,0.67343 2.85715,0 1.34687,-1.34687 -1.34687,-4.36742 0,-5.71429 0.67343,-0.67343 2.1837,0.67344 2.85714,0 1.90099,-1.90099 -1.90099,-3.81329 0,-5.71428 0.67343,-0.67344 2.18371,0.67343 2.85714,0 1.42857,-1.42858 -1.42857,-7.14286 0,-8.57143 3.80953,-3.80953 2.85714,4.7619 2.85714,-2.85715"
       id="path2987"
       inkscape:connector-curvature="0" />
    <path
       sodipodi:type="arc"
       style="fill:#ff0000;fill-rule:evenodd;stroke:#000000;stroke-width:1px;stroke-linecap:butt;stroke-linejoin:miter;stroke-opacity:1"
       id="path2989"
       sodipodi:cx="128.57143"
       sodipodi:cy="419.50504"
       sodipodi:rx="11.428572"
       sodipodi:ry="12.857142"
       d="m 140,419.50504 a 11.428572,12.857142 0 1 1 -22.85715,0 11.428572,12.857142 0 1 1 22.85715,0 z" />
    <path
       sodipodi:type="arc"
       style="fill:#ff0000;fill-rule:evenodd;stroke:#000000;stroke-width:1px;stroke-linecap:butt;stroke-linejoin:miter;stroke-opacity:1"
       id="path2991"
       sodipodi:cx="381.42856"
       sodipodi:cy="416.64789"
       sodipodi:rx="15.714286"
       sodipodi:ry="15.714286"
       d="m 397.14284,416.64789 a 15.714286,15.714286 0 1 1 -31.42857,0 15.714286,15.714286 0 1 1 31.42857,0 z" />
    <path
       sodipodi:type="arc"
       style="fill:#ff0000;fill-rule:evenodd;stroke:#000000;stroke-width:1px;stroke-linecap:butt;stroke-linejoin:miter;stroke-opacity:1"
       id="path2993"
       sodipodi:cx="634.28571"
       sodipodi:cy="413.79074"
       sodipodi:rx="17.142857"
       sodipodi:ry="15.714286"
       d="m 651.42856,413.79074 a 17.142857,15.714286 0 1 1 -34.28571,0 17.142857,15.714286 0 1 1 34.28571,0 z" />
    <text
       xml:space="preserve"
       style="font-size:40px;font-style:normal;font-weight:normal;line-height:125%;letter-spacing:0px;word-spacing:0px;fill:#000000;fill-opacity:1;stroke:none;font-family:Bitstream Vera Sans"
       x="200"
       y="269.50504"
       id="text2995"
       sodipodi:linespacing="125%"><tspan
         sodipodi:role="line"
         id="tspan2997"
         x="200"
         y="269.50504">$\xi$</tspan></text>
    <text
       xml:space="preserve"
       style="font-size:40px;font-style:normal;font-weight:normal;line-height:125%;letter-spacing:0px;word-spacing:0px;fill:#000000;fill-opacity:1;stroke:none;font-family:Bitstream Vera Sans"
       x="456.11469"
       y="564.61804"
       id="text2995-0"
       sodipodi:linespacing="125%"
       inkscape:transform-center-x="46.279297"
       inkscape:transform-center-y="-18.134766"><tspan
         sodipodi:role="line"
         id="tspan2997-1"
         x="456.11469"
         y="564.61804">$\xi$</tspan></text>
    <text
       xml:space="preserve"
       style="font-size:40px;font-style:normal;font-weight:normal;line-height:125%;letter-spacing:0px;word-spacing:0px;fill:#000000;fill-opacity:1;stroke:none;font-family:Bitstream Vera Sans"
       x="177.14285"
       y="363.79077"
       id="text3020"
       sodipodi:linespacing="125%"><tspan
         sodipodi:role="line"
         id="tspan3022"
         x="177.14285"
         y="363.79077">$s_{1}$</tspan></text>
    <text
       xml:space="preserve"
       style="font-size:40px;font-style:normal;font-weight:normal;line-height:125%;letter-spacing:0px;word-spacing:0px;fill:#000000;fill-opacity:1;stroke:none;font-family:Bitstream Vera Sans"
       x="401.70062"
       y="457.1264"
       id="text3020-8"
       sodipodi:linespacing="125%"><tspan
         sodipodi:role="line"
         id="tspan3022-5"
         x="401.70062"
         y="457.1264">$s_{2}$</tspan></text>
  </g>
</svg>
